<?xml version="1.0" encoding="utf-8"?>
<svg width="212px" height="131px" viewBox="0 0 212 131" version="1.1" xmlns:xlink="http://www.w3.org/1999/xlink" xmlns="http://www.w3.org/2000/svg">
  <defs>
    <filter filterUnits="userSpaceOnUse" color-interpolation-filters="sRGB" id="filter_1">
      <feFlood flood-opacity="0" result="BackgroundImageFix" />
      <feColorMatrix in="SourceAlpha" type="matrix" values="0 0 0 0 0 0 0 0 0 0 0 0 0 0 0 0 0 0 127 0" />
      <feOffset dx="0" dy="5" />
      <feGaussianBlur stdDeviation="5" />
      <feColorMatrix type="matrix" values="0 0 0 0 0.39215687 0 0 0 0 0.39215687 0 0 0 0 0.39215687 0 0 0 0.49803922 0" />
      <feBlend mode="normal" in2="BackgroundImageFix" result="effect0_dropShadow" />
      <feBlend mode="normal" in="SourceGraphic" in2="effect0_dropShadow" result="shape" />
    </filter>
  </defs>
  <g id="iCook-RECIPES" transform="translate(15 10)">
    <g id="i" fill="#D58EBF" filter="url(#filter_1)">
      <path d="M31.9512 62.186L31.3799 65.1377Q24.4292 72.5962 18.9067 72.5962Q14.3364 72.5962 14.3364 67.8037Q14.3364 66.1851 15.0664 62.4717L17.2563 51.4268Q18.145 46.7295 18.145 45.1743Q18.145 42.5083 16.082 42.5083Q14.6538 42.5083 10.9722 43.5874L11.353 41.6514L26.873 36.5732L24.4609 46.7295L21.3506 62.4082Q20.6206 66.0898 20.6206 67.1055Q20.6206 69.1685 22.4932 69.1685Q25.6353 69.1685 31.9512 62.186ZM20.3032 31.0508L22.4297 26.7344L31.3799 20.8945L28.6504 26.7344L20.3032 31.0508Z" />
    </g>
    <g id="Cook" fill="#B84694" filter="url(#filter_1)">
      <path d="M150.524 62.4082L148.175 72.1836L154.904 71.8027L157.982 56.3462Q165.568 66.5977 168.662 69.5969Q171.757 72.5962 174.804 72.5962Q178.581 72.5962 184.896 66.6929L185.341 64.4395Q181.215 68.2798 178.454 68.2798Q174.105 68.2798 165.092 55.7749Q173.185 54.4419 177.565 50.792Q181.945 47.1421 181.945 41.7466Q181.945 36.5732 176.581 36.5732Q171.725 36.5732 166.853 40.6199Q161.981 44.6665 158.998 51.2046L158.617 51.2046L161.759 37.335Q163.568 29.3687 164.473 26.8296Q165.377 24.2905 166.964 22.6084Q169.694 19.7202 173.915 19.7202Q176.549 19.7202 180.263 21.4023L184.611 16.8638Q182.04 16.1973 178.898 16.1973Q169.821 16.1973 163.489 22.5925Q157.157 28.9878 154.872 40.4771L150.524 62.4082ZM51.3667 72.9771Q58.9839 72.9771 69.0767 68.9141L69.6797 65.8989Q61.7451 69.4541 54.6992 69.4541Q48.415 69.4541 44.8127 65.5158Q41.2104 61.5776 41.2104 54.7171Q41.2104 49.0315 43.4956 42.6794Q45.7808 36.3273 49.3989 32.0391Q54.8579 25.5601 62.126 25.5601Q66.9502 25.5601 69.9653 27.2752Q72.9805 28.9903 72.9805 31.7535Q72.9805 32.7066 72.6631 34.1993L74.6626 34.1993L77.3604 25.4663Q71.0762 23.624 63.7446 23.624Q51.4619 23.624 42.8132 32.9075Q34.1646 42.1909 34.1646 55.4258Q34.1646 63.7729 38.6714 68.375Q43.1782 72.9771 51.3667 72.9771ZM78.8914 69.343Q81.6685 72.5962 85.8262 72.5962Q94.3955 72.5962 101.314 64.9631Q108.233 57.3301 108.233 47.8403Q108.233 42.9209 105.377 39.7471Q102.521 36.5732 98.1089 36.5732Q89.9521 36.5732 83.0332 44.3333Q76.1143 52.0933 76.1143 61.2339Q76.1143 66.0898 78.8914 69.343ZM122.19 72.5962Q118.032 72.5962 115.255 69.343Q112.478 66.0898 112.478 61.2339Q112.478 52.0933 119.397 44.3333Q126.316 36.5732 134.473 36.5732Q138.884 36.5732 141.741 39.7471Q144.597 42.9209 144.597 47.8403Q144.597 57.3301 137.678 64.9631Q130.759 72.5962 122.19 72.5962ZM97.7122 63.7888Q94.1416 69.835 89.4443 69.835Q83.0649 69.835 83.0649 59.52Q83.0649 51.7124 86.699 45.4758Q90.333 39.2393 94.8716 39.2393Q101.283 39.2393 101.283 49.7446Q101.283 57.7427 97.7122 63.7888ZM125.808 69.835Q130.505 69.835 134.076 63.7888Q137.646 57.7427 137.646 49.7446Q137.646 39.2393 131.235 39.2393Q126.697 39.2393 123.063 45.4758Q119.429 51.7124 119.429 59.52Q119.429 69.835 125.808 69.835ZM158.268 54.9814L158.332 54.5688Q167.885 39.7153 173.249 39.7153Q175.724 39.7153 175.724 42.8257Q175.724 47.7451 170.868 51.3633Q166.012 54.9814 159.347 54.9814L158.268 54.9814Z" />
    </g>
    <g id="RECIPES" fill="#FFC402" filter="url(#filter_1)">
      <path d="M124.251 94.1909Q125.782 94.1909 127.496 93.5904L127.496 91.9283Q125.965 92.6455 124.728 92.6455Q123.314 92.6455 122.384 91.5002Q121.454 90.355 121.454 88.5475Q121.454 87.3474 121.853 86.2863Q122.252 85.2253 123.017 84.7386Q123.783 84.252 124.684 84.252Q125.797 84.252 127.496 84.8959L127.496 83.1447Q126.163 82.8091 124.654 82.8091Q122.523 82.8091 121.395 83.5771Q120.267 84.3452 119.688 85.629Q119.11 86.9127 119.11 88.4854Q119.11 90.1386 119.732 91.4479Q120.355 92.7572 121.542 93.4741Q122.728 94.1909 124.251 94.1909ZM170.124 92.0159L170.124 93.832Q171.889 94.1909 173.354 94.1909Q174.98 94.1909 175.928 93.7734Q176.877 93.356 177.353 92.6052Q177.829 91.8545 177.829 90.9683Q177.829 90.0015 177.301 89.2837Q176.767 88.5659 175.338 87.8042L173.097 86.603Q172.379 86.2222 172.24 85.9512Q172.101 85.6802 172.101 85.4092Q172.101 84.9038 172.631 84.5779Q173.162 84.252 174.142 84.252Q175.56 84.252 177.111 84.8818L177.111 83.168Q175.677 82.8091 174.089 82.8091Q171.982 82.8091 171.027 83.666Q170.072 84.5229 170.072 85.7388Q170.072 86.2881 170.277 86.7715Q170.483 87.2549 170.878 87.6577Q171.274 88.0605 172.255 88.5952L174.276 89.6949Q175.133 90.1635 175.346 90.471Q175.551 90.7858 175.551 91.1593Q175.551 91.8182 174.921 92.2648Q174.291 92.7114 173.28 92.7114Q171.837 92.7114 170.124 92.0159ZM94.5368 93.9199L94.5368 83.0801L98.653 83.0801Q100.191 83.0801 100.938 83.8564Q101.685 84.6328 101.685 85.812Q101.685 86.4419 101.458 87.0278Q101.231 87.6138 100.839 88.0825Q100.447 88.5513 99.7004 88.9614L102.48 93.9199L99.9787 93.9199L97.509 89.4888L96.7121 89.4888L96.7121 93.9199L94.5368 93.9199ZM107.402 93.9199L107.402 83.0801L114.177 83.0801L114.177 84.5303L109.577 84.5303L109.577 87.5918L113.459 87.5918L113.459 88.9468L109.577 88.9468L109.577 92.4697L114.565 92.4697L114.565 93.9199L107.402 93.9199ZM132.349 93.9199L132.349 92.4697L134.875 92.4697L134.875 84.5303L132.349 84.5303L132.349 83.0801L139.578 83.0801L139.578 84.5303L137.051 84.5303L137.051 92.4697L139.578 92.4697L139.578 93.9199L132.349 93.9199ZM145.17 83.0801L145.17 93.9199L147.345 93.9199L147.345 89.6133L148.179 89.6133Q149.92 89.6133 150.863 89.1482Q151.807 88.6831 152.264 87.8848Q152.721 87.0864 152.721 85.9878Q152.721 84.5742 151.934 83.8271Q151.146 83.0801 149.367 83.0801L145.17 83.0801ZM157.954 93.9199L157.954 83.0801L164.729 83.0801L164.729 84.5303L160.13 84.5303L160.13 87.5918L164.011 87.5918L164.011 88.9468L160.13 88.9468L160.13 92.4697L165.117 92.4697L165.117 93.9199L157.954 93.9199ZM96.7121 88.0459L97.1138 88.0459Q97.7931 88.0459 98.3227 87.7969Q98.8523 87.5479 99.1298 87.0315Q99.4074 86.5151 99.4074 85.9292Q99.4074 85.5264 99.254 85.1858Q99.1006 84.8452 98.8012 84.6841Q98.5017 84.5229 97.4061 84.5229L96.7121 84.5229L96.7121 88.0459ZM147.878 88.1704L147.345 88.1704L147.345 84.5229L148.149 84.5229Q149.303 84.5229 149.683 84.7061Q150.063 84.8892 150.227 85.2371Q150.392 85.585 150.392 86.0024Q150.392 86.6177 150.107 87.1707Q149.822 87.7236 149.212 87.947Q148.602 88.1704 147.878 88.1704Z" />
    </g>
  </g>
</svg>